HIERARCHY
ROOT hip
{
  OFFSET 0 0 0
  CHANNELS 6 Xposition Yposition Zposition Zrotation Yrotation Xrotation
  JOINT abdomen
  {
    OFFSET 0 20.6881 -0.73152
    CHANNELS 3 Zrotation Xrotation Yrotation
    JOINT chest
    {
      OFFSET 0 11.7043 -0.48768
      CHANNELS 3 Zrotation Xrotation Yrotation
      JOINT neck
      {
        OFFSET 0 22.1894 -2.19456
        CHANNELS 3 Zrotation Xrotation Yrotation
        JOINT head
        {
          OFFSET -0.24384 7.07133 1.2192
          CHANNELS 3 Zrotation Xrotation Yrotation
          JOINT leftEye
          {
            OFFSET 4.14528 8.04674 8.04672
            CHANNELS 3 Zrotation Xrotation Yrotation
            End Site
            {
              OFFSET 1 0 0
            }
          }
          JOINT rightEye
          {
            OFFSET -3.6576 8.04674 8.04672
            CHANNELS 3 Zrotation Xrotation Yrotation
            End Site
            {
              OFFSET 1 0 0
            }
          }
        }
      }
      JOINT rCollar
      {
        OFFSET -2.68224 19.2634 -4.8768
        CHANNELS 3 Zrotation Xrotation Yrotation
        JOINT rShldr
        {
          OFFSET -8.77824 -1.95073 1.46304
          CHANNELS 3 Zrotation Xrotation Yrotation
          JOINT rForeArm
          {
            OFFSET -28.1742 -1.7115 0.48768
            CHANNELS 3 Zrotation Xrotation Yrotation
            JOINT rHand
            {
              OFFSET -22.5879 0.773209 7.07136
              CHANNELS 3 Zrotation Xrotation Yrotation
              JOINT rThumb1
              {
                OFFSET -1.2192 -0.487915 3.41376
                CHANNELS 3 Zrotation Xrotation Yrotation
                JOINT rThumb2
                {
                  OFFSET -3.37035 -0.52449 3.41376
                  CHANNELS 3 Zrotation Xrotation Yrotation
                  End Site
                  {
                    OFFSET -1.78271 -1.18214 1.43049
                  }
                }
              }
              JOINT rIndex1
              {
                OFFSET -7.75947 0.938293 5.60832
                CHANNELS 3 Zrotation Xrotation Yrotation
                JOINT rIndex2
                {
                  OFFSET -2.54057 -0.884171 1.56538
                  CHANNELS 3 Zrotation Xrotation Yrotation
                  End Site
                  {
                    OFFSET -1.62519 -0.234802 1.16502
                  }
                }
              }
              JOINT rMid1
              {
                OFFSET -8.24714 1.18213 3.41376
                CHANNELS 3 Zrotation Xrotation Yrotation
                JOINT rMid2
                {
                  OFFSET -3.10165 -0.590103 1.0647
                  CHANNELS 3 Zrotation Xrotation Yrotation
                  End Site
                  {
                    OFFSET -2.48547 -0.328903 0.83742
                  }
                }
              }
              JOINT rRing1
              {
                OFFSET -8.82822 0.546677 1.51678
                CHANNELS 3 Zrotation Xrotation Yrotation
                JOINT rRing2
                {
                  OFFSET -2.60934 -0.819778 -0.0198488
                  CHANNELS 3 Zrotation Xrotation Yrotation
                  End Site
                  {
                    OFFSET -2.33842 -0.294052 0.168128
                  }
                }
              }
              JOINT rPinky1
              {
                OFFSET -8.27202 -0.0477905 -0.4584
                CHANNELS 3 Zrotation Xrotation Yrotation
                JOINT rPinky2
                {
                  OFFSET -1.82734 -0.647385 -0.700984
                  CHANNELS 3 Zrotation Xrotation Yrotation
                  End Site
                  {
                    OFFSET -1.69225 -0.51767 -0.607171
                  }
                }
              }
            }
          }
        }
      }
      JOINT lCollar
      {
        OFFSET 2.68224 19.2634 -4.8768
        CHANNELS 3 Zrotation Xrotation Yrotation
        JOINT lShldr
        {
          OFFSET 8.77824 -1.95073 1.46304
          CHANNELS 3 Zrotation Xrotation Yrotation
          JOINT lForeArm
          {
            OFFSET 28.1742 -1.7115 0.48768
            CHANNELS 3 Zrotation Xrotation Yrotation
            JOINT lHand
            {
              OFFSET 22.5879 0.773209 7.07136
              CHANNELS 3 Zrotation Xrotation Yrotation
              JOINT lThumb1
              {
                OFFSET 1.2192 -0.487915 3.41376
                CHANNELS 3 Zrotation Xrotation Yrotation
                JOINT lThumb2
                {
                  OFFSET 3.37035 -0.52449 3.41376
                  CHANNELS 3 Zrotation Xrotation Yrotation
                  End Site
                  {
                    OFFSET 1.78271 -1.18214 1.43049
                  }
                }
              }
              JOINT lIndex1
              {
                OFFSET 7.75947 0.938293 5.60832
                CHANNELS 3 Zrotation Xrotation Yrotation
                JOINT lIndex2
                {
                  OFFSET 2.54057 -0.884171 1.56538
                  CHANNELS 3 Zrotation Xrotation Yrotation
                  End Site
                  {
                    OFFSET 1.62519 -0.234802 1.16502
                  }
                }
              }
              JOINT lMid1
              {
                OFFSET 8.24714 1.18213 3.41376
                CHANNELS 3 Zrotation Xrotation Yrotation
                JOINT lMid2
                {
                  OFFSET 3.10165 -0.590103 1.0647
                  CHANNELS 3 Zrotation Xrotation Yrotation
                  End Site
                  {
                    OFFSET 2.48547 -0.328903 0.83742
                  }
                }
              }
              JOINT lRing1
              {
                OFFSET 8.82822 0.546677 1.51678
                CHANNELS 3 Zrotation Xrotation Yrotation
                JOINT lRing2
                {
                  OFFSET 2.60934 -0.819778 -0.0198488
                  CHANNELS 3 Zrotation Xrotation Yrotation
                  End Site
                  {
                    OFFSET 2.33842 -0.294052 0.168128
                  }
                }
              }
              JOINT lPinky1
              {
                OFFSET 8.27202 -0.0477905 -0.4584
                CHANNELS 3 Zrotation Xrotation Yrotation
                JOINT lPinky2
                {
                  OFFSET 1.82734 -0.647385 -0.700984
                  CHANNELS 3 Zrotation Xrotation Yrotation
                  End Site
                  {
                    OFFSET 1.69225 -0.51767 -0.607171
                  }
                }
              }
            }
          }
        }
      }
    }
  }
  JOINT rButtock
  {
    OFFSET -8.77824 4.35084 1.2192
    CHANNELS 3 Zrotation Xrotation Yrotation
    JOINT rThigh
    {
      OFFSET 0 -1.70687 -2.19456
      CHANNELS 3 Zrotation Xrotation Yrotation
      JOINT rShin
      {
        OFFSET 0 -36.8199 0.73152
        CHANNELS 3 Zrotation Xrotation Yrotation
        JOINT rFoot
        {
          OFFSET 0.73152 -45.1104 -5.12064
          CHANNELS 3 Zrotation Xrotation Yrotation
          End Site
          {
            OFFSET -1.1221 -3.69964 12.103
          }
        }
      }
    }
  }
  JOINT lButtock
  {
    OFFSET 8.77824 4.35084 1.2192
    CHANNELS 3 Zrotation Xrotation Yrotation
    JOINT lThigh
    {
      OFFSET 0 -1.70687 -2.19456
      CHANNELS 3 Zrotation Xrotation Yrotation
      JOINT lShin
      {
        OFFSET 0 -36.8199 0.73152
        CHANNELS 3 Zrotation Xrotation Yrotation
        JOINT lFoot
        {
          OFFSET -0.73152 -45.1104 -5.12064
          CHANNELS 3 Zrotation Xrotation Yrotation
          End Site
          {
            OFFSET 1.1221 -3.69964 12.103
          }
        }
      }
    }
  }
}
MOTION
Frames:	4
Frame Time:	0.00833333
2.32831 101.038 -40.0239 -0.1119 2.0742 10.2783 -1.91963 0.694563 -2.8407 2.97343 4.66381 -1.00499 -3.17782 10.6715 0.633686 2.27118 -1.5341 1.52315 -0.0 0.0 0.0 -0.0 0.0 0.0 2.23164e-14 4.82885e-13 -5.52058e-14 74.1358 15.7782 11.6793 -13.4444 -6.51533 24.4415 -1.43623 31.912 5.02084 2.04169e-09 4.92704e-10 -2.668e-09 3.45822e-09 9.3665e-10 -4.65502e-09 2.0417e-09 4.92701e-10 -2.668e-09 7.73091 5.47488 0.417314 2.04169e-09 4.92697e-10 -2.66799e-09 2.90554 0.965183 0.102902 2.04169e-09 4.92701e-10 -2.668e-09 10.2786 0.731801 0.0259123 2.04168e-09 4.927e-10 -2.66799e-09 2.22167 -0.733487 -0.20892 2.22563e-14 4.82886e-13 -5.55211e-14 -67.2225 27.664 -21.6692 8.05392 -3.03984 -14.1994 0.0796808 -8.01336 1.13371 -1.52721e-10 3.72323e-09 3.87306e-09 -2.73413e-10 6.43293e-09 6.68609e-09 -1.5273e-10 3.72322e-09 3.87307e-09 -7.73091 5.47488 -0.417314 -1.52719e-10 3.72322e-09 3.87306e-09 -2.90554 0.965183 -0.102902 -1.52724e-10 3.72322e-09 3.87306e-09 -10.2786 0.731801 -0.0259123 -1.52716e-10 3.72322e-09 3.87306e-09 -2.22167 -0.733487 0.20892 -2.03217e-16 0.0 -3.88251e-19 -4.72132 -20.4976 -5.45564 -0.414645 40.9162 0.396078 3.58917 32.5992 -8.35437 2.03217e-16 0.0 3.88251e-19 6.9014 -22.7566 7.4081 0.384203 42.6709 -0.685921 1.37942 32.3434 -2.38096
2.31486 101.87 -39.3341 -0.1826 2.0972 9.6495 -1.78162 2.18827 -2.7828 3.02969 4.29131 -0.985387 -3.19581 10.4512 0.601104 2.24354 -1.3257 1.47038 -0.0 0.0 0.0 -0.0 0.0 0.0 1.99407e-14 3.32666e-13 -8.17409e-14 74.4052 15.0471 11.6679 -13.2823 -6.39031 24.1195 -1.47963 32.3283 5.10264 1.86799e-09 1.6611e-10 -2.04539e-09 3.17277e-09 3.58168e-10 -3.5777e-09 1.868e-09 1.66109e-10 -2.0454e-09 7.73091 5.47488 0.417314 1.86799e-09 1.66107e-10 -2.04539e-09 2.90554 0.965183 0.102902 1.868e-09 1.66107e-10 -2.0454e-09 10.2786 0.731801 0.0259123 1.86799e-09 1.66106e-10 -2.04539e-09 2.22167 -0.733487 -0.20892 1.98921e-14 3.32666e-13 -8.20763e-14 -67.5811 27.4115 -21.6224 8.00194 -3.01222 -14.1048 0.0852443 -8.26466 1.16982 2.82052e-10 3.21493e-09 3.13597e-09 4.79749e-10 5.55564e-09 5.41688e-09 2.82043e-10 3.21493e-09 3.13598e-09 -7.73091 5.47488 -0.417314 2.82054e-10 3.21493e-09 3.13597e-09 -2.90554 0.965183 -0.102902 2.82049e-10 3.21493e-09 3.13597e-09 -10.2786 0.731801 -0.0259123 2.82057e-10 3.21493e-09 3.13597e-09 -2.22167 -0.733487 0.20892 -2.03217e-16 0.0 -3.88251e-19 -4.69472 -21.4987 -5.72438 -0.465908 43.2404 0.470928 3.34203 32.2709 -7.94774 2.03217e-16 0.0 3.88251e-19 7.20151 -23.7062 7.83562 0.438898 44.8573 -0.754561 1.35035 31.867 -2.34503
2.29378 102.66 -38.6346 -0.3026 2.1301 9.0046 -1.60711 3.76049 -2.73158 3.07144 3.86297 -0.96456 -3.19135 10.2037 0.569758 2.17449 -1.1182 1.41861 -0.0 0.0 0.0 -0.0 0.0 0.0 1.60045e-14 1.71962e-13 -1.03299e-13 74.6797 14.3136 11.6677 -13.1102 -6.25874 23.7798 -1.52257 32.73 5.18242 1.61089e-09 -1.61321e-10 -1.33785e-09 2.74557e-09 -2.24878e-10 -2.35162e-09 1.61089e-09 -1.61319e-10 -1.33786e-09 7.73091 5.47488 0.417314 1.61089e-09 -1.61321e-10 -1.33785e-09 2.90554 0.965183 0.102902 1.6109e-09 -1.61324e-10 -1.33785e-09 10.2786 0.731801 0.0259123 1.61089e-09 -1.61326e-10 -1.33785e-09 2.22167 -0.733487 -0.20892 1.59698e-14 1.71961e-13 -1.03648e-13 -67.9706 27.1147 -21.5547 7.92691 -2.973 -13.9679 0.0880188 -8.3922 1.18815 7.02809e-10 2.60081e-09 2.28389e-09 1.20905e-09 4.49555e-09 3.94896e-09 7.02801e-10 2.6008e-09 2.28389e-09 -7.73091 5.47488 -0.417314 7.02811e-10 2.6008e-09 2.28389e-09 -2.90554 0.965183 -0.102902 7.02806e-10 2.6008e-09 2.28389e-09 -10.2786 0.731801 -0.0259123 7.02814e-10 2.6008e-09 2.28388e-09 -2.22167 -0.733487 0.20892 -2.03217e-16 0.0 -3.88251e-19 -4.67164 -22.5364 -6.04556 -0.522156 45.4753 0.551445 3.05071 31.7864 -7.47677 2.03217e-16 0.0 3.88251e-19 7.5333 -24.6674 8.284 0.495431 46.8806 -0.823701 1.32085 31.2529 -2.31185
2.2679 103.402 -37.9369 -0.4544 2.1769 8.4124 -1.43947 5.16845 -2.70992 3.10529 3.44121 -0.948959 -3.16544 9.94406 0.545698 2.08569 -0.873174 1.37842 -0.0 0.0 0.0 -0.0 0.0 0.0 1.38316e-14 6.36119e-14 -1.12711e-13 74.9498 13.6564 11.6559 -12.9432 -6.1325 23.451 -1.56081 33.0793 5.25249 1.36204e-09 -3.67322e-10 -8.0544e-10 2.32868e-09 -5.94977e-10 -1.42726e-09 1.36204e-09 -3.67319e-10 -8.0545e-10 7.73091 5.47488 0.417314 1.36203e-09 -3.6732e-10 -8.05444e-10 2.90554 0.965183 0.102902 1.36205e-09 -3.67325e-10 -8.05441e-10 10.2786 0.731801 0.0259123 1.36204e-09 -3.67327e-10 -8.05437e-10 2.22167 -0.733487 -0.20892 1.38004e-14 6.36107e-14 -1.13059e-13 -68.3838 26.7807 -21.4468 7.81916 -2.91778 -13.7705 0.0841735 -8.24817 1.16736 9.23048e-10 2.08194e-09 1.59109e-09 1.59151e-09 3.59979e-09 2.75432e-09 9.23041e-10 2.08194e-09 1.59109e-09 -7.73091 5.47488 -0.417314 9.2305e-10 2.08194e-09 1.59108e-09 -2.90554 0.965183 -0.102902 9.23044e-10 2.08194e-09 1.59108e-09 -10.2786 0.731801 -0.0259123 9.23052e-10 2.08194e-09 1.59108e-09 -2.22167 -0.733487 0.20892 -2.03217e-16 0.0 -3.88251e-19 -4.67393 -23.7292 -6.40804 -0.579677 47.5156 0.631874 2.75413 31.1423 -7.01553 2.03217e-16 0.0 3.88251e-19 7.85831 -25.7225 8.75194 0.549115 48.5964 -0.886156 1.24681 30.4922 -2.18339
